<svg xmlns="http://www.w3.org/2000/svg" viewBox="0 0 48 48" width="48" height="48" style="width: 100%; height: 100%; transform: translate3d(0px, 0px, 0px);" preserveAspectRatio="xMidYMid meet"><defs><clipPath id="__lottie_element_336"><rect width="48" height="48" x="0" y="0"></rect></clipPath><filter id="__lottie_element_341" filterUnits="objectBoundingBox" x="0%" y="0%" width="100%" height="100%"><feComponentTransfer in="SourceGraphic"><feFuncA type="table" tableValues="1.0 0.0"></feFuncA></feComponentTransfer></filter><mask id="__lottie_element_337" mask-type="alpha"><g filter="url(#__lottie_element_341)"><rect width="48" height="48" x="0" y="0" fill="#ffffff" opacity="0"></rect><g style="display: block;" transform="matrix(0.822315514087677,0,0,0.822315514087677,24,24)" opacity="1"><g opacity="1" transform="matrix(1,0,0,1,0,0)"><path fill="rgb(255,202,40)" fill-opacity="1" d=" M24,0 C24,13.255000114440918 13.255000114440918,24 0,24 C-13.255000114440918,24 -24,13.255000114440918 -24,0 C-24,-13.255000114440918 -13.255000114440918,-24 0,-24 C13.255000114440918,-24 24,-13.255000114440918 24,0z"></path></g></g></g></mask><clipPath id="__lottie_element_348"><path fill="#ffffff" clip-rule="nonzero" d=" M14.618769645690918,0.5 C14.618769645690918,8.29778003692627 8.29778003692627,14.618769645690918 0.5,14.618769645690918 C-7.297780513763428,14.618769645690918 -13.618340492248535,8.29778003692627 -13.618340492248535,0.5 C-13.618340492248535,-7.297780513763428 -7.297780513763428,-13.618340492248535 0.5,-13.618340492248535 C8.29778003692627,-13.618340492248535 14.618769645690918,-7.297780513763428 14.618769645690918,0.5" fill-opacity="1"></path></clipPath></defs><g clip-path="url(#__lottie_element_336)"><g style="display: block;" transform="matrix(0.8221457004547119,0.03473157435655594,0.03473157435655594,-0.8221457004547119,16.45833969116211,37.826385498046875)" opacity="1"><g opacity="1" transform="matrix(1,0,0,1,0,0)"><path fill="rgb(66,165,245)" fill-opacity="1" d=" M2,0 C2,1.1050000190734863 1.1050000190734863,2 0,2 C-1.1050000190734863,2 -2,1.1050000190734863 -2,0 C-2,-1.1050000190734863 -1.1050000190734863,-2 0,-2 C1.1050000190734863,-2 2,-1.1050000190734863 2,0z"></path></g></g><g style="display: block;" transform="matrix(0.8221457004547119,0.03473157435655594,0.03473157435655594,-0.8221457004547119,30.486780166625977,36.03081512451172)" opacity="1"><g opacity="1" transform="matrix(1,0,0,1,0,0)"><path fill="rgb(255,152,0)" fill-opacity="1" d=" M2,0 C2,1.1050000190734863 1.1050000190734863,2 0,2 C-1.1050000190734863,2 -2,1.1050000190734863 -2,0 C-2,-1.1050000190734863 -1.1050000190734863,-2 0,-2 C1.1050000190734863,-2 2,-1.1050000190734863 2,0z"></path></g></g><g style="display: block;" transform="matrix(0.9639427065849304,0.040721796452999115,0.040721796452999115,-0.9639427065849304,5.633540630340576,42.47856521606445)" opacity="1"><g opacity="1" transform="matrix(1,0,0,1,0,0)"><path fill="rgb(255,61,0)" fill-opacity="1" d=" M2,0 C2,1.1050000190734863 1.1050000190734863,2 0,2 C-1.1050000190734863,2 -2,1.1050000190734863 -2,0 C-2,-1.1050000190734863 -1.1050000190734863,-2 0,-2 C1.1050000190734863,-2 2,-1.1050000190734863 2,0z"></path></g></g><g style="display: block;" transform="matrix(0.8221457004547119,0.03473157435655594,0.03473157435655594,-0.8221457004547119,11.656577110290527,31.93950080871582)" opacity="1"><g opacity="1" transform="matrix(1,0,0,1,0,0)"><path fill="rgb(255,152,0)" fill-opacity="1" d=" M2,0 C2,1.1050000190734863 1.1050000190734863,2 0,2 C-1.1050000190734863,2 -2,1.1050000190734863 -2,0 C-2,-1.1050000190734863 -1.1050000190734863,-2 0,-2 C1.1050000190734863,-2 2,-1.1050000190734863 2,0z"></path></g></g><g style="display: block;" transform="matrix(0.8221457004547119,0.03473157435655594,0.03473157435655594,-0.8221457004547119,37.22211837768555,29.332181930541992)" opacity="1"><g opacity="1" transform="matrix(1,0,0,1,0,0)"><path fill="rgb(64,195,81)" fill-opacity="1" d=" M2,0 C2,1.1050000190734863 1.1050000190734863,2 0,2 C-1.1050000190734863,2 -2,1.1050000190734863 -2,0 C-2,-1.1050000190734863 -1.1050000190734863,-2 0,-2 C1.1050000190734863,-2 2,-1.1050000190734863 2,0z"></path></g></g><g style="display: block;" transform="matrix(0.8221457004547119,0.03473157435655594,0.03473157435655594,-0.8221457004547119,7.816793918609619,16.725461959838867)" opacity="1"><g opacity="1" transform="matrix(1,0,0,1,0,0)"><path fill="rgb(64,195,81)" fill-opacity="1" d=" M2,0 C2,1.1050000190734863 1.1050000190734863,2 0,2 C-1.1050000190734863,2 -2,1.1050000190734863 -2,0 C-2,-1.1050000190734863 -1.1050000190734863,-2 0,-2 C1.1050000190734863,-2 2,-1.1050000190734863 2,0z"></path></g></g><g style="display: block;" transform="matrix(0.8221457004547119,0.03473157435655594,0.03473157435655594,-0.8221457004547119,17.66380500793457,9.367815017700195)" opacity="1"><g opacity="1" transform="matrix(1,0,0,1,0,0)"><path fill="rgb(64,195,81)" fill-opacity="1" d=" M2,0 C2,1.1050000190734863 1.1050000190734863,2 0,2 C-1.1050000190734863,2 -2,1.1050000190734863 -2,0 C-2,-1.1050000190734863 -1.1050000190734863,-2 0,-2 C1.1050000190734863,-2 2,-1.1050000190734863 2,0z"></path></g></g><g style="display: block;" transform="matrix(0.9639427065849304,0.040721796452999115,0.040721796452999115,-0.9639427065849304,32.34275817871094,3.8607943058013916)" opacity="1"><g opacity="1" transform="matrix(1,0,0,1,0,0)"><path fill="rgb(255,61,0)" fill-opacity="1" d=" M2,0 C2,1.1050000190734863 1.1050000190734863,2 0,2 C-1.1050000190734863,2 -2,1.1050000190734863 -2,0 C-2,-1.1050000190734863 -1.1050000190734863,-2 0,-2 C1.1050000190734863,-2 2,-1.1050000190734863 2,0z"></path></g></g><g style="display: block;" transform="matrix(0.9639427065849304,0.040721796452999115,0.040721796452999115,-0.9639427065849304,38.60078430175781,39.29818344116211)" opacity="1"><g opacity="1" transform="matrix(1,0,0,1,0,0)"><path fill="rgb(255,61,0)" fill-opacity="1" d=" M2,0 C2,1.1050000190734863 1.1050000190734863,2 0,2 C-1.1050000190734863,2 -2,1.1050000190734863 -2,0 C-2,-1.1050000190734863 -1.1050000190734863,-2 0,-2 C1.1050000190734863,-2 2,-1.1050000190734863 2,0z"></path></g></g><g style="display: block;" transform="matrix(0.8221457004547119,0.03473157435655594,0.03473157435655594,-0.8221457004547119,35.70070266723633,9.629050254821777)" opacity="1"><g opacity="1" transform="matrix(1,0,0,1,0,0)"><path fill="rgb(66,165,245)" fill-opacity="1" d=" M2,0 C2,1.1050000190734863 1.1050000190734863,2 0,2 C-1.1050000190734863,2 -2,1.1050000190734863 -2,0 C-2,-1.1050000190734863 -1.1050000190734863,-2 0,-2 C1.1050000190734863,-2 2,-1.1050000190734863 2,0z"></path></g></g><g style="display: block;" transform="matrix(0.9639427065849304,0.040721796452999115,0.040721796452999115,-0.9639427065849304,42.32986831665039,5.77883768081665)" opacity="1"><g opacity="1" transform="matrix(1,0,0,1,0,0)"><path fill="rgb(255,152,0)" fill-opacity="1" d=" M2,0 C2,1.1050000190734863 1.1050000190734863,2 0,2 C-1.1050000190734863,2 -2,1.1050000190734863 -2,0 C-2,-1.1050000190734863 -1.1050000190734863,-2 0,-2 C1.1050000190734863,-2 2,-1.1050000190734863 2,0z"></path></g></g><g style="display: block;" transform="matrix(0.9639427065849304,0.040721796452999115,0.040721796452999115,-0.9639427065849304,2.9284114837646484,8.28266716003418)" opacity="1"><g opacity="1" transform="matrix(1,0,0,1,0,0)"><path fill="rgb(66,165,245)" fill-opacity="1" d=" M2,0 C2,1.1050000190734863 1.1050000190734863,2 0,2 C-1.1050000190734863,2 -2,1.1050000190734863 -2,0 C-2,-1.1050000190734863 -1.1050000190734863,-2 0,-2 C1.1050000190734863,-2 2,-1.1050000190734863 2,0z"></path></g></g><g style="display: block;" transform="matrix(0.9991088509559631,0.04220739006996155,0.04220739006996155,-0.9991088509559631,22,26.895999908447266)" opacity="1"></g><g style="display: none;" transform="matrix(1,0,0,1,24,24)" opacity="1"><g opacity="1" transform="matrix(1,0,0,1,0,0)"><path fill="rgb(255,205,210)" fill-opacity="1" d=" M10,-18 C5.823999881744385,-18 2.1480000019073486,-15.86299991607666 0,-12.628000259399414 C-2.1489999294281006,-15.86299991607666 -5.823999881744385,-18 -10,-18 C-16.62700080871582,-18 -22,-12.626999855041504 -22,-6 C-22,5.942999839782715 0,18 0,18 C0,18 22,6.045000076293945 22,-6 C22,-12.626999855041504 16.62700080871582,-18 10,-18"></path></g></g><g style="display: block;" transform="matrix(1.0974748134613037,0,0,1.0974748134613037,24,24)" opacity="1"><g opacity="1" transform="matrix(1,0,0,1,0,0)"><path fill="rgb(255,205,210)" fill-opacity="1" d=" M10,-18 C5.823999881744385,-18 2.1480000019073486,-15.86299991607666 0,-12.628000259399414 C-2.1489999294281006,-15.86299991607666 -5.823999881744385,-18 -10,-18 C-16.62700080871582,-18 -22,-12.626999855041504 -22,-6 C-22,5.942999839782715 0,18 0,18 C0,18 22,6.045000076293945 22,-6 C22,-12.626999855041504 16.62700080871582,-18 10,-18"></path></g></g><g clip-path="url(#__lottie_element_348)" style="display: block;" transform="matrix(1.0974748134613037,0,0,1.0974748134613037,24,24)" opacity="1"><g opacity="1" transform="matrix(1,0,0,1,0,0)"></g><g opacity="1" transform="matrix(1,0,0,1,0,0)"><path fill="rgb(255,61,0)" fill-opacity="1" d=" M10,-18 C5.823999881744385,-18 2.1480000019073486,-15.86299991607666 0,-12.628000259399414 C-2.1489999294281006,-15.86299991607666 -5.823999881744385,-18 -10,-18 C-16.62700080871582,-18 -22,-12.626999855041504 -22,-6 C-22,5.942999839782715 0,18 0,18 C0,18 22,6.045000076293945 22,-6 C22,-12.626999855041504 16.62700080871582,-18 10,-18"></path></g></g><g style="display: block;" mask="url(#__lottie_element_337)"><g transform="matrix(0.9556230902671814,0,0,0.9556230902671814,24,24)" opacity="1"><g opacity="1" transform="matrix(1,0,0,1,0,0)"><path fill="rgb(255,61,0)" fill-opacity="1" d=" M24,0 C24,13.255000114440918 13.255000114440918,24 0,24 C-13.255000114440918,24 -24,13.255000114440918 -24,0 C-24,-13.255000114440918 -13.255000114440918,-24 0,-24 C13.255000114440918,-24 24,-13.255000114440918 24,0z"></path></g></g></g></g></svg>